<svg width="24" height="24" viewBox="0 0 24 24" fill="none" xmlns="http://www.w3.org/2000/svg">
<g clip-path="url(#clip0_915_17796)">
<path d="M19.8203 16.9504L16.9938 16.1582C14.6313 14.7004 15.3813 15.1645 15.2313 15.0707V13.5051C16.2063 12.4738 17.0875 10.9223 17.1859 7.78164C17.4578 7.55195 17.6359 7.20977 17.6359 6.81602C17.6359 6.41758 17.6359 6.03789 17.5 5.43789L18.1047 4.24727C18.4844 3.49727 18.1562 2.57852 17.3875 2.23633L12.5969 0.126953C12.2219 -0.0371094 11.7859 -0.0371094 11.4109 0.126953L6.61094 2.24102C5.84219 2.57852 5.51406 3.49727 5.89375 4.24727L6.49844 5.44258C6.37188 6.04258 6.37187 6.41758 6.37187 6.83477C6.37187 7.18164 6.50312 7.51914 6.81719 7.78164C6.91094 10.8801 7.81094 12.4645 8.77188 13.491V15.066C8.62188 15.1598 9.37187 14.6957 7.01406 16.1582L4.1875 16.9504C2.49063 17.4285 1.30469 18.9941 1.30469 20.7613V23.3629C1.30469 23.6395 1.52969 23.8645 1.80625 23.8645C2.08281 23.8645 2.29844 23.6395 2.29844 23.3629V20.7613C2.29844 19.4441 3.18437 18.2723 4.45469 17.916L6.98594 17.2035L8.29844 19.3176C8.69687 19.9598 9.54062 20.2035 10.2344 19.7957L10.5531 20.1145L10.1875 23.4473C10.1594 23.7238 10.3562 23.9676 10.6281 24.0004C10.9 24.0285 11.1484 23.8316 11.1812 23.5598L11.4766 20.8691C11.6406 20.9348 11.8141 20.9676 11.9969 20.9676C12.1797 20.9676 12.3531 20.9301 12.5172 20.8691L12.8125 23.5598C12.8453 23.8691 13.1594 24.052 13.3656 24.0004C13.6422 23.9723 13.8391 23.7238 13.8063 23.4473L13.4406 20.1145L13.7594 19.7957C14.4484 20.1988 15.2969 19.9645 15.6953 19.3176L17.0078 17.2035L19.5438 17.9113C20.8141 18.2676 21.7 19.4395 21.7 20.7566V23.3582C21.7 23.6348 21.925 23.8598 22.2016 23.8598C22.4781 23.8598 22.7031 23.6348 22.7031 23.3582V20.7566C22.7031 18.9988 21.5172 17.4332 19.8203 16.9504ZM12.0016 17.2973L9.77031 15.141V14.4145C9.78437 14.4285 10.0984 14.691 10.1031 14.6957C10.5016 15.0332 11.0031 15.216 11.5234 15.216H12.4891C13.0094 15.216 13.5156 15.0285 13.9141 14.691C14.2047 14.4473 14.2141 14.4332 14.2422 14.4191V15.141L12.0016 17.2973ZM16.6375 6.83945C16.6375 6.9707 16.5297 7.0832 16.3938 7.0832C16.4313 7.0832 15.9625 7.07852 7.60938 7.0832C7.47813 7.0832 7.36563 6.97539 7.36563 6.83945C7.36563 6.48789 7.36562 6.24883 7.42656 5.87852H16.5719C16.6375 6.24414 16.6375 6.51133 16.6375 6.83945ZM14.7063 8.08164L14.2703 8.50352C13.9469 8.81758 13.5203 8.98633 13.075 8.98633H10.9375C10.4875 8.98633 10.0609 8.81289 9.7375 8.49883L9.30625 8.08164H14.7063ZM7.86719 8.08164L9.03906 9.21602C9.55 9.71289 10.2203 9.98477 10.9328 9.98477H13.0703C13.7781 9.98477 14.4531 9.71289 14.9641 9.2207L16.1406 8.08164H16.1734C15.9859 11.7613 14.6453 12.7645 13.2578 13.9316C13.0422 14.1145 12.7656 14.2176 12.4844 14.2176H11.5187C11.2375 14.2176 10.9609 14.1145 10.7453 13.9316C9.60625 12.9191 8.0125 12.0191 7.82031 8.08164H7.86719ZM7.01406 3.15508L11.8141 1.04102C11.9359 0.989453 12.0719 0.989453 12.1938 1.04102L16.9891 3.15508C17.2375 3.26289 17.3406 3.5582 17.2188 3.79727L16.6703 4.87539H7.32812L6.78437 3.79727C6.6625 3.5582 6.77031 3.26289 7.01406 3.15508ZM9.15156 18.7879L7.90469 16.7816C9.68594 15.6848 9.07188 16.0598 9.20312 15.9801L11.2141 17.9254L9.76562 18.9191C9.55937 19.0598 9.28281 18.9988 9.15156 18.7879ZM11.6922 19.8379L11.0828 19.2285L12.0016 18.6004L12.9203 19.2285L12.3109 19.8379C12.1469 20.002 11.8562 20.002 11.6922 19.8379ZM14.8516 18.7879C14.7203 18.9941 14.4438 19.0598 14.2375 18.9191L12.7891 17.9254L14.8 15.9801C14.9313 16.0598 14.3219 15.6848 16.0938 16.7816L14.8516 18.7879Z" fill="white"/>
</g>
<defs>
<clipPath id="clip0_915_17796">
<rect width="24" height="24" fill="white"/>
</clipPath>
</defs>
</svg>
