<svg width="18" height="18" viewBox="0 0 18 18" fill="none" xmlns="http://www.w3.org/2000/svg">
<mask id="mask0_1104_15033" style="mask-type:alpha" maskUnits="userSpaceOnUse" x="0" y="0" width="18" height="18">
<rect width="18" height="18" fill="white"/>
</mask>
<g mask="url(#mask0_1104_15033)">
<path d="M10.5259 5.42792C10.5253 5.54495 10.4972 5.66019 10.4438 5.76436C10.3905 5.86853 10.3134 5.95871 10.2189 6.02764C10.1243 6.09656 10.0148 6.14229 9.89934 6.16115C9.78384 6.18 9.66553 6.17146 9.55394 6.1362C7.63265 5.55543 5.58261 5.55521 3.66121 6.13557C3.54971 6.17114 3.43141 6.18 3.31585 6.16144C3.2003 6.14288 3.09073 6.09743 2.99597 6.02873C2.90121 5.96004 2.82393 5.87004 2.77035 5.76599C2.71677 5.66194 2.6884 5.54675 2.68752 5.42972V5.42808C2.68632 5.27557 2.7324 5.12643 2.81942 5.00118C2.90645 4.87593 3.03015 4.78072 3.1735 4.72866C5.39606 3.93323 7.82585 3.93423 10.0478 4.73148C10.1892 4.7846 10.3109 4.87989 10.3964 5.00445C10.4819 5.12901 10.5271 5.27683 10.5259 5.42792Z" fill="white"/>
<path d="M0.497339 15.1743C0.42781 15.294 0.391006 15.4298 0.390628 15.5682C0.39025 15.7066 0.426311 15.8427 0.495186 15.9627C0.564061 16.0828 0.663324 16.1826 0.782995 16.2521C0.902666 16.3216 1.03853 16.3584 1.17693 16.3588H6.32572L2.77008 12.8027C1.83704 13.4041 1.05851 14.2165 0.497339 15.1743Z" fill="white"/>
<path d="M3.10938 12.5877L6.88112 16.3597H7.89462L3.78324 12.248C3.5527 12.3491 3.32776 12.4625 3.10938 12.5877Z" fill="white"/>
<path d="M12.7113 15.1749C11.8849 13.7357 10.5747 12.6365 9.01382 12.0728C7.45293 11.5092 5.74267 11.5178 4.1875 12.097L8.44969 16.3594H12.0313C12.1697 16.3592 12.3056 16.3224 12.4254 16.2529C12.5451 16.1834 12.6444 16.0836 12.7134 15.9636C12.7823 15.8435 12.8184 15.7074 12.818 15.5689C12.8176 15.4305 12.7808 15.2946 12.7113 15.1749ZM10.5244 14.9877H8.95668C8.90471 14.9877 8.85486 14.9671 8.81811 14.9303C8.78136 14.8936 8.76072 14.8437 8.76072 14.7918C8.76072 14.7398 8.78136 14.69 8.81811 14.6532C8.85486 14.6165 8.90471 14.5958 8.95668 14.5958H10.5244C10.5763 14.5958 10.6262 14.6165 10.6629 14.6532C10.6997 14.69 10.7203 14.7398 10.7203 14.7918C10.7203 14.8437 10.6997 14.8936 10.6629 14.9303C10.6262 14.9671 10.5763 14.9877 10.5244 14.9877Z" fill="white"/>
<path d="M3.77249 6.50965C3.68129 6.53667 3.58719 6.55269 3.49219 6.55738C3.67318 8.30988 4.99645 10.8716 6.60473 10.8716C8.21449 10.8716 9.53918 8.30479 9.71789 6.55221C9.62339 6.54962 9.52956 6.53557 9.43845 6.51035C7.59064 5.95512 5.62044 5.95488 3.77249 6.50965Z" fill="white"/>
<path d="M2.6875 6.95341C2.68963 7.13558 2.7558 7.3112 2.8744 7.44949C2.993 7.58778 3.15648 7.67994 3.3362 7.70981C3.21953 7.31979 3.14359 6.91873 3.1096 6.51305C3.04238 6.48753 2.97774 6.4557 2.91654 6.41797C2.84462 6.48746 2.78731 6.57062 2.74798 6.66257C2.70865 6.75452 2.68809 6.8534 2.6875 6.95341Z" fill="white"/>
<path d="M9.875 7.70933C10.0547 7.67946 10.2182 7.58731 10.3368 7.44901C10.4554 7.31072 10.5216 7.1351 10.5237 6.95293C10.5231 6.85345 10.5026 6.75509 10.4636 6.66358C10.4246 6.57207 10.3677 6.48924 10.2964 6.41992C10.2344 6.45577 10.1692 6.48576 10.1017 6.50951C10.0678 6.91622 9.99186 7.31831 9.875 7.70933Z" fill="white"/>
<path d="M9.73945 4.22605V3.81767C9.73823 3.40228 9.57267 3.00424 9.27894 2.71051C8.98521 2.41678 8.58717 2.25122 8.17177 2.25H5.03642C4.62103 2.25122 4.22299 2.41678 3.92926 2.71051C3.63553 3.00424 3.46997 3.40228 3.46875 3.81767V4.22637C5.51129 3.595 7.69684 3.59489 9.73945 4.22605Z" fill="white"/>
<path d="M5.82031 11.0977V11.7036H7.38799V11.098C7.1413 11.2079 6.87424 11.2648 6.60415 11.2648C6.33406 11.2648 6.067 11.2076 5.82031 11.0977Z" fill="white"/>
<path d="M18.2724 13.9334L15.8265 11.488C16.2385 10.9562 16.4838 10.2889 16.4838 9.56416C16.4838 7.82765 15.0761 6.41992 13.3395 6.41992C11.603 6.41992 10.1953 7.82763 10.1953 9.56413C10.1953 11.3006 11.603 12.7084 13.3395 12.7084C14.0659 12.7084 14.7346 12.4619 15.267 12.0483L17.7123 14.4934C17.867 14.648 18.1177 14.6477 18.2724 14.4934C18.4268 14.3388 18.4268 14.088 18.2724 13.9334Z" fill="white"/>
</g>
</svg>
